<svg xmlns="http://www.w3.org/2000/svg" viewBox="-240 12665 10 10">
  <defs>
    <style>
      .cls-1 {
        fill: #fff;
      }
    </style>
  </defs>
  <path id="archive" class="cls-1" d="M12.744,4.239l-.772-.933A.806.806,0,0,0,11.333,3H4.667a.826.826,0,0,0-.644.306l-.767.933A1.088,1.088,0,0,0,3,4.944v6.944A1.114,1.114,0,0,0,4.111,13h7.778A1.114,1.114,0,0,0,13,11.889V4.944A1.088,1.088,0,0,0,12.744,4.239ZM8,11.056,4.944,8H6.889V6.889H9.111V8h1.944ZM4.178,4.111l.45-.556h6.667l.522.556Z" transform="translate(-243 12662)"/>
</svg>
