<svg xmlns="http://www.w3.org/2000/svg" viewBox="-21 12418 10.66 11.348">
  <g id="calendar_black" data-name="calendar black" transform="translate(-21 12418)">
    <path id="Path_47" data-name="Path 47" d="M25.978,14.1H24.82V13.65a.247.247,0,0,0-.25-.25h-.986a.247.247,0,0,0-.25.25v.438H18.558V13.65a.247.247,0,0,0-.25-.25h-.986a.247.247,0,0,0-.25.25v.438h-1.19a.281.281,0,0,0-.282.282v10.1a.281.281,0,0,0,.282.282h10.1a.281.281,0,0,0,.282-.282V14.37A.268.268,0,0,0,25.978,14.1Zm-2.411.11V13.65a.015.015,0,0,1,.016-.016h.986a.015.015,0,0,1,.016.016v.986a.015.015,0,0,1-.016.016h-.986a.015.015,0,0,1-.016-.016Zm-6.261,0V13.65a.015.015,0,0,1,.016-.016h.986a.015.015,0,0,1,.016.016v.986a.015.015,0,0,1-.016.016h-.986a.015.015,0,0,1-.016-.016Zm-1.424.125h1.19v.313a.247.247,0,0,0,.25.25h.986a.247.247,0,0,0,.25-.25v-.313h4.774v.313a.247.247,0,0,0,.25.25h.986a.247.247,0,0,0,.25-.25v-.313h1.158a.05.05,0,0,1,.047.047V16H15.85V14.37A.034.034,0,0,1,15.882,14.339Zm10.1,10.174h-10.1a.05.05,0,0,1-.047-.047V16.218H26.009v8.249C26.025,24.5,26.009,24.514,25.978,24.514Z" transform="translate(-15.6 -13.4)"/>
    <path id="Path_48" data-name="Path 48" d="M25.7,42.1v4.915h7.5V42.1Zm7.247,1.487H31.288V42.35h1.659Zm-5.072.266h1.44v1.284h-1.44Zm-.25,1.268H25.95V43.837h1.675Zm1.706-1.534h-1.44V42.35h1.44Zm.25-1.237h1.44v1.237h-1.44Zm-.25,3.021v1.377h-1.44V45.371Zm.25,0h1.44v1.377h-1.44Zm0-.25V43.837h1.44v1.284Zm1.706-1.268h1.659v1.284H31.288Zm-3.663-1.5v1.237H25.95V42.35ZM25.95,45.371h1.675v1.377H25.95Zm5.338,1.393V45.371h1.659v1.377H31.288Z" transform="translate(-24.119 -37.608)"/>
  </g>
</svg>
