<svg xmlns="http://www.w3.org/2000/svg" viewBox="-23 12518 15 18">
  <g id="drawing_black" data-name="drawing black" transform="translate(-41 12506)">
    <path id="Path_25" data-name="Path 25" d="M30.75,22.75V23H29.085l-1.927-5.38a2.5,2.5,0,0,0-.908-4.255V12h-1.5v1.365a2.5,2.5,0,0,0-.908,4.255L21.915,23H20v-.25H18V24h2v-.25h1.645l-.9,2.5V30h.182l2.285-6.25H25V25h1V23.75h1.783L30.068,30h.182V26.25l-.9-2.5h1.4V24H33V22.75ZM25.5,14.5a1.25,1.25,0,1,1-1.25,1.25A1.25,1.25,0,0,1,25.5,14.5ZM26,23V21.75H25V23H23.49l1.74-4.765a2.438,2.438,0,0,0,.54,0L27.51,23Z"/>
  </g>
</svg>
