<svg xmlns="http://www.w3.org/2000/svg" viewBox="-23 12296 15 12">
  <g id="home_black" data-name="home black" transform="translate(-33 12278.001)">
    <g id="Group_31" data-name="Group 31" transform="translate(10 17.999)">
      <path id="Path_29" data-name="Path 29" d="M17.49,970.362a.4.4,0,0,0-.223.076l-7.125,5.625a.388.388,0,0,0-.064.533.394.394,0,0,0,.533.059l6.891-5.437,6.891,5.438a.377.377,0,0,0,.469-.592l-2.672-2.109v-3.217a.375.375,0,0,0-.375-.375h-1.5a.375.375,0,0,0-.375.375v1.441l-2.2-1.74A.428.428,0,0,0,17.49,970.362Zm3.2.75h.75v2.25l-.75-.592Zm-7.875,4.295-.75.592v5.988a.375.375,0,0,0,.375.375h3.375a.375.375,0,0,0,.375-.375v-2.063a1.313,1.313,0,0,1,2.625,0v2.063a.375.375,0,0,0,.375.375h3.375a.375.375,0,0,0,.375-.375V976l-.75-.592v6.205H19.564v-1.687a2.062,2.062,0,1,0-4.125,0v1.688H12.814Z" transform="translate(-10 -970.362)"/>
    </g>
  </g>
</svg>
