<svg xmlns="http://www.w3.org/2000/svg" viewBox="90 12449 15 19.592">
  <defs>
    <style>
      .cls-1 {
        fill: #00af87;
      }
    </style>
  </defs>
  <g id="png_icon" data-name="png icon" transform="translate(75 12449)">
    <path id="Path_252" data-name="Path 252" class="cls-1" d="M.153,0A.154.154,0,0,0,0,.153V19.439a.154.154,0,0,0,.153.153H14.847A.147.147,0,0,0,15,19.439V15H5.663a.154.154,0,0,1-.153-.153V10.561a.154.154,0,0,1,.153-.153H15V3.98H11.173a.154.154,0,0,1-.153-.153V0ZM11.327,0V3.52a.154.154,0,0,0,.153.153H15ZM11.7,12.073a.929.929,0,0,0-.679.239.833.833,0,0,0-.239.627.848.848,0,0,0,.239.641.918.918,0,0,0,.665.23,1.682,1.682,0,0,0,.373-.043,2.3,2.3,0,0,0,.3-.086v-.823h-.77v.316h.33V13.5c-.016,0-.032,0-.053,0H11.81a.58.58,0,0,1-.431-.148.567.567,0,0,1-.148-.421.653.653,0,0,1,.043-.239.474.474,0,0,1,.11-.172.487.487,0,0,1,.167-.105.6.6,0,0,1,.206-.034.655.655,0,0,1,.187.029.766.766,0,0,1,.153.062,1.012,1.012,0,0,1,.115.072c.04.028.07.051.091.067h.048v-.392a1.353,1.353,0,0,0-.33-.115,1.588,1.588,0,0,0-.316-.034Zm-4.448.034v1.669h.431V13.23h.268a.786.786,0,0,0,.3-.048.689.689,0,0,0,.225-.148.5.5,0,0,0,.11-.182.643.643,0,0,0,.043-.22.534.534,0,0,0-.057-.249.434.434,0,0,0-.153-.167.605.605,0,0,0-.191-.081,1.1,1.1,0,0,0-.268-.029H7.256Zm1.679,0v1.669h.4V12.628l.708,1.148h.411V12.106h-.392v.957l-.608-.957Zm-1.248.311h.072c.071,0,.13,0,.172,0a.376.376,0,0,1,.129.029.211.211,0,0,1,.091.072.191.191,0,0,1,.038.12.36.36,0,0,1-.019.124.214.214,0,0,1-.062.086.255.255,0,0,1-.12.053.993.993,0,0,1-.182.014h-.12v-.5Z" transform="translate(15)"/>
  </g>
</svg>
