<svg xmlns="http://www.w3.org/2000/svg" viewBox="90 12402 15 19.592">
  <defs>
    <style>
      .cls-1 {
        fill: #3495bf;
      }
    </style>
  </defs>
  <g id="text_icon" data-name="text icon" transform="translate(75 12402)">
    <path id="Path_249" data-name="Path 249" class="cls-1" d="M.153,0A.154.154,0,0,0,0,.153V19.439a.154.154,0,0,0,.153.153H14.847A.147.147,0,0,0,15,19.439V15H5.663a.154.154,0,0,1-.153-.153V10.561a.154.154,0,0,1,.153-.153H15V3.98H11.173a.154.154,0,0,1-.153-.153V0ZM11.327,0V3.52a.154.154,0,0,0,.153.153H15ZM7.089,12.106v.325H7.61v1.344H8.04V12.431h.521v-.325H7.089Zm1.554,0,.584.827-.593.842h.474l.368-.55.359.55h.5l-.593-.856.584-.813H9.849l-.359.521-.349-.521h-.5Zm1.76,0v.325h.521v1.344h.431V12.431h.521v-.325Z" transform="translate(15)"/>
  </g>
</svg>
