<svg xmlns="http://www.w3.org/2000/svg" viewBox="-30 12638 25 13.71">
  <defs>
    <style>
      .cls-1 {
        fill: #00adee;
      }
    </style>
  </defs>
  <g id="toggle_on" data-name="toggle on" transform="translate(-49 12605)">
    <path id="Path_39" data-name="Path 39" class="cls-1" d="M37.145,33H25.855a6.855,6.855,0,0,0,0,13.71h11.29a6.855,6.855,0,1,0,0-13.71Zm0,11.29a4.435,4.435,0,1,1,4.435-4.435A4.436,4.436,0,0,1,37.145,44.29Zm1.9-5.527a.4.4,0,0,1,0,.57L37.027,41.35a.4.4,0,0,1-.57,0l-1.21-1.21a.4.4,0,0,1,.57-.57l.925.925,1.731-1.731A.4.4,0,0,1,39.043,38.763Z"/>
  </g>
</svg>
