<svg xmlns="http://www.w3.org/2000/svg" viewBox="-243 12406.001 15 9.625">
  <defs>
    <style>
      .cls-1 {
        fill: #fff;
      }
    </style>
  </defs>
  <g id="user_management_white" data-name="user management white" transform="translate(-263 12375.201)">
    <g id="Group_32" data-name="Group 32" transform="translate(20 30.8)">
      <path id="Path_30" data-name="Path 30" d="M25.55,32.75A1.95,1.95,0,1,1,27.5,34.7,1.953,1.953,0,0,1,25.55,32.75Zm6.6,1.8a1.625,1.625,0,1,0-1.625-1.625A1.622,1.622,0,0,0,32.15,34.55Zm-9.3,0a1.625,1.625,0,1,0-1.625-1.625A1.622,1.622,0,0,0,22.85,34.55Zm7.3.925L28.8,34.8a2.352,2.352,0,0,1-1.325.375A2.638,2.638,0,0,1,26.15,34.8l-1.35.675a1.389,1.389,0,0,0-.775,1.25v3.7h6.85V36.7A1.23,1.23,0,0,0,30.15,35.475Zm4.2-.25L33.325,34.7a2.158,2.158,0,0,1-1.175.35,2.039,2.039,0,0,1-1.175-.35l-.625.3.025.025a1.878,1.878,0,0,1,1.05,1.675v2.9H35V36.25A1.1,1.1,0,0,0,34.35,35.225Zm-9.725-.2L24.65,35l-.625-.3a2.158,2.158,0,0,1-1.175.35,2.1,2.1,0,0,1-1.175-.35l-1.025.525A1.1,1.1,0,0,0,20,36.25v3.375h3.575V36.7A1.878,1.878,0,0,1,24.625,35.025Z" transform="translate(-20 -30.8)"/>
      <path id="Path_31" data-name="Path 31" class="cls-1" d="M25.55,32.75A1.95,1.95,0,1,1,27.5,34.7,1.953,1.953,0,0,1,25.55,32.75Zm6.6,1.8a1.625,1.625,0,1,0-1.625-1.625A1.622,1.622,0,0,0,32.15,34.55Zm-9.3,0a1.625,1.625,0,1,0-1.625-1.625A1.622,1.622,0,0,0,22.85,34.55Zm7.3.925L28.8,34.8a2.352,2.352,0,0,1-1.325.375A2.638,2.638,0,0,1,26.15,34.8l-1.35.675a1.389,1.389,0,0,0-.775,1.25v3.7h6.85V36.7A1.23,1.23,0,0,0,30.15,35.475Zm4.2-.25L33.325,34.7a2.158,2.158,0,0,1-1.175.35,2.039,2.039,0,0,1-1.175-.35l-.625.3.025.025a1.878,1.878,0,0,1,1.05,1.675v2.9H35V36.25A1.1,1.1,0,0,0,34.35,35.225Zm-9.725-.2L24.65,35l-.625-.3a2.158,2.158,0,0,1-1.175.35,2.1,2.1,0,0,1-1.175-.35l-1.025.525A1.1,1.1,0,0,0,20,36.25v3.375h3.575V36.7A1.878,1.878,0,0,1,24.625,35.025Z" transform="translate(-20 -30.8)"/>
    </g>
  </g>
</svg>
