<svg xmlns="http://www.w3.org/2000/svg" viewBox="90 12544 15 19.592">
  <defs>
    <style>
      .cls-1 {
        fill: #0e794b;
      }
    </style>
  </defs>
  <g id="xls_icon" data-name="xls icon" transform="translate(75 12544)">
    <path id="Path_251" data-name="Path 251" class="cls-1" d="M.153,0A.154.154,0,0,0,0,.153V19.439a.154.154,0,0,0,.153.153H14.847A.147.147,0,0,0,15,19.439V15H5.663a.154.154,0,0,1-.153-.153V10.561a.154.154,0,0,1,.153-.153H15V3.98H11.173a.154.154,0,0,1-.153-.153V0ZM11.327,0V3.52a.154.154,0,0,0,.153.153H15Zm-.191,12.077a.919.919,0,0,0-.54.148.44.44,0,0,0-.206.378.459.459,0,0,0,.091.292.633.633,0,0,0,.306.187,1.6,1.6,0,0,0,.2.048c.07.013.133.028.2.043a.328.328,0,0,1,.139.062.114.114,0,0,1,.048.091.12.12,0,0,1-.034.091.259.259,0,0,1-.081.053.437.437,0,0,1-.105.019c-.043,0-.079.01-.105.01a.962.962,0,0,1-.316-.057.989.989,0,0,1-.3-.163h-.048v.4a1.9,1.9,0,0,0,.287.1,1.643,1.643,0,0,0,.364.034.929.929,0,0,0,.564-.153.479.479,0,0,0,.21-.4.408.408,0,0,0-.091-.278.6.6,0,0,0-.282-.172,1.807,1.807,0,0,0-.182-.048l-.177-.038a.567.567,0,0,1-.191-.067.117.117,0,0,1-.053-.1.11.11,0,0,1,.034-.077.2.2,0,0,1,.077-.053.384.384,0,0,1,.1-.024.807.807,0,0,1,.11-.01.829.829,0,0,1,.3.053.886.886,0,0,1,.249.139h.043v-.387a1.458,1.458,0,0,0-.278-.081,1.637,1.637,0,0,0-.325-.029Zm-4.056.029.579.827-.588.842h.474l.368-.55.359.55h.5l-.593-.856.584-.813H8.28l-.354.521-.349-.521h-.5Zm1.928,0v1.669h1.205V13.45H9.437V12.106H9.007Z" transform="translate(15)"/>
  </g>
</svg>
