<svg xmlns="http://www.w3.org/2000/svg" viewBox="90 12355 15 19.592">
  <defs>
    <style>
      .cls-1 {
        fill: #103a71;
      }
    </style>
  </defs>
  <g id="zip_icon" data-name="zip icon" transform="translate(75 12355)">
    <path id="Path_250" data-name="Path 250" class="cls-1" d="M.153,0A.154.154,0,0,0,0,.153V19.439a.154.154,0,0,0,.153.153H14.847A.147.147,0,0,0,15,19.439V15H5.663a.154.154,0,0,1-.153-.153V10.561a.154.154,0,0,1,.153-.153H15V3.98H11.173a.154.154,0,0,1-.153-.153V0ZM11.327,0V3.52a.154.154,0,0,0,.153.153H15ZM7.184,12.106v.325h.789l-.832,1.033v.311h1.4V13.45H7.667L8.5,12.427v-.321H7.184Zm1.583,0v.3H9.04v1.076H8.767v.3h.976v-.3H9.471V12.4h.273v-.3Zm1.33,0v1.669h.431V13.23H10.8a.812.812,0,0,0,.306-.048.67.67,0,0,0,.22-.148.5.5,0,0,0,.115-.182.637.637,0,0,0,.038-.22.532.532,0,0,0-.053-.249.434.434,0,0,0-.153-.167.634.634,0,0,0-.2-.081,1.1,1.1,0,0,0-.268-.029H10.1Zm.431.311H10.6c.071,0,.13,0,.172,0a.376.376,0,0,1,.129.029.211.211,0,0,1,.091.072.191.191,0,0,1,.038.12.36.36,0,0,1-.019.124.214.214,0,0,1-.062.086.255.255,0,0,1-.12.053.937.937,0,0,1-.177.014h-.124v-.5Z" transform="translate(15)"/>
  </g>
</svg>
