<svg xmlns="http://www.w3.org/2000/svg" viewBox="90 12638 15 19.592">
  <defs>
    <style>
      .cls-1 {
        fill: #02f;
      }
    </style>
  </defs>
  <g id="document_icon" data-name="document icon" transform="translate(75 12638)">
    <path id="Path_245" data-name="Path 245" class="cls-1" d="M.153,0A.154.154,0,0,0,0,.153V19.439a.154.154,0,0,0,.153.153H14.847A.147.147,0,0,0,15,19.439V15H5.663a.154.154,0,0,1-.153-.153V10.561a.154.154,0,0,1,.153-.153H15V3.98H11.173a.154.154,0,0,1-.153-.153V0ZM11.327,0V3.52a.154.154,0,0,0,.153.153H15ZM9.92,12.073a.842.842,0,0,0-.631.234,1.006,1.006,0,0,0,0,1.267.842.842,0,0,0,.631.234.852.852,0,0,0,.636-.234,1,1,0,0,0,0-1.267A.844.844,0,0,0,9.92,12.073Zm1.947,0a1.009,1.009,0,0,0-.354.062.731.731,0,0,0-.268.172.771.771,0,0,0-.172.278,1.028,1.028,0,0,0-.062.359,1.044,1.044,0,0,0,.062.373.709.709,0,0,0,.45.435,1.044,1.044,0,0,0,.344.057,1.165,1.165,0,0,0,.2-.014,1.389,1.389,0,0,0,.153-.034.994.994,0,0,0,.12-.043l.12-.053v-.4h-.043c-.02.018-.05.042-.081.067a.916.916,0,0,1-.1.067.617.617,0,0,1-.144.067.509.509,0,0,1-.153.024.576.576,0,0,1-.167-.029.41.41,0,0,1-.153-.086.468.468,0,0,1-.11-.167.693.693,0,0,1-.043-.263.706.706,0,0,1,.038-.253.489.489,0,0,1,.11-.172.393.393,0,0,1,.148-.091.539.539,0,0,1,.177-.034.466.466,0,0,1,.153.029.748.748,0,0,1,.134.057.967.967,0,0,1,.105.077c.032.025.06.044.081.062h.048v-.407c-.031-.015-.064-.031-.105-.048a1.083,1.083,0,0,0-.139-.048,1.278,1.278,0,0,0-.158-.029,1.248,1.248,0,0,0-.187-.014Zm-4.611.034v1.669h.588a1.775,1.775,0,0,0,.344-.029.826.826,0,0,0,.268-.105.774.774,0,0,0,.268-.282.816.816,0,0,0,.105-.416.85.85,0,0,0-.1-.421.751.751,0,0,0-.268-.287.806.806,0,0,0-.249-.1,1.585,1.585,0,0,0-.354-.034h-.6Zm2.669.282a.394.394,0,0,1,.153.029.339.339,0,0,1,.134.1.507.507,0,0,1,.091.172.812.812,0,0,1,.034.253.87.87,0,0,1-.034.244.508.508,0,0,1-.091.182.346.346,0,0,1-.129.1.447.447,0,0,1-.316,0,.362.362,0,0,1-.134-.1.5.5,0,0,1-.091-.167.839.839,0,0,1-.034-.253.867.867,0,0,1,.034-.258.474.474,0,0,1,.1-.172.35.35,0,0,1,.129-.1A.432.432,0,0,1,9.925,12.388Zm-2.239.029h.105a1.262,1.262,0,0,1,.21.014.47.47,0,0,1,.134.043.415.415,0,0,1,.191.182.608.608,0,0,1,.057.282.652.652,0,0,1-.053.282.409.409,0,0,1-.172.177.532.532,0,0,1-.144.053,1.314,1.314,0,0,1-.225.014H7.686V12.417Z" transform="translate(15)"/>
  </g>
</svg>
