<svg xmlns="http://www.w3.org/2000/svg" viewBox="-23 12487 15 19.979">
  <g id="documents_black" data-name="documents black" transform="translate(-39.9 12481.9)">
    <g id="Group_29" data-name="Group 29" transform="translate(16.9 5.1)">
      <path id="Path_26" data-name="Path 26" d="M31.9,9.811a.689.689,0,0,0-.2-.489l-3.756-4a.689.689,0,0,0-.533-.222H18.078A1.186,1.186,0,0,0,16.9,6.278V23.9a1.186,1.186,0,0,0,1.178,1.178H30.722A1.186,1.186,0,0,0,31.9,23.9Zm-1.178,14.6H18.078a.5.5,0,0,1-.511-.511V6.256a.5.5,0,0,1,.511-.511h9.333v2.8a1.313,1.313,0,0,0,1.311,1.311h2.489V23.878A.491.491,0,0,1,30.722,24.411Z" transform="translate(-16.9 -5.1)"/>
    </g>
  </g>
</svg>
