<svg xmlns="http://www.w3.org/2000/svg" viewBox="90 12591 15 19.592">
  <defs>
    <style>
      .cls-1 {
        fill: #ffa100;
      }
    </style>
  </defs>
  <g id="jpg_icon" data-name="jpg icon" transform="translate(532 12898)">
    <path id="Path_247" data-name="Path 247" class="cls-1" d="M.153,0A.154.154,0,0,0,0,.153V19.439a.154.154,0,0,0,.153.153H14.847A.147.147,0,0,0,15,19.439V15H5.663a.154.154,0,0,1-.153-.153V10.561a.154.154,0,0,1,.153-.153H15V3.98H11.173a.154.154,0,0,1-.153-.153V0ZM11.327,0V3.52a.154.154,0,0,0,.153.153H15Zm-.292,12.073a.929.929,0,0,0-.679.239.837.837,0,0,0-.244.627.848.848,0,0,0,.239.641.931.931,0,0,0,.67.23,1.639,1.639,0,0,0,.368-.043,2.3,2.3,0,0,0,.3-.086v-.823h-.77v.316h.335V13.5l-.057,0H11.14a.592.592,0,0,1-.435-.148.567.567,0,0,1-.148-.421.653.653,0,0,1,.043-.239.474.474,0,0,1,.11-.172.487.487,0,0,1,.167-.105.633.633,0,0,1,.392,0,.766.766,0,0,1,.153.062,1.012,1.012,0,0,1,.115.072c.04.028.075.051.1.067h.048v-.392a1.379,1.379,0,0,0-.335-.115,1.539,1.539,0,0,0-.311-.034Zm-3.726.034v.306h.383v.665c0,.068,0,.123,0,.167a.315.315,0,0,1-.029.12.2.2,0,0,1-.091.091.424.424,0,0,1-.182.029.556.556,0,0,1-.148-.014c-.039-.012-.079-.025-.115-.038H7.088v.34a1.441,1.441,0,0,0,.177.024c.068.006.143,0,.22,0a.93.93,0,0,0,.287-.038.58.58,0,0,0,.2-.11.4.4,0,0,0,.115-.158.538.538,0,0,0,.038-.206V12.106H7.308Zm1.22,0v1.669h.431V13.23h.268a.812.812,0,0,0,.306-.048.67.67,0,0,0,.22-.148.5.5,0,0,0,.115-.182.637.637,0,0,0,.038-.22.532.532,0,0,0-.053-.249.447.447,0,0,0-.158-.167.605.605,0,0,0-.191-.081,1.1,1.1,0,0,0-.268-.029H8.529Zm.431.311h.072c.071,0,.13,0,.172,0a.376.376,0,0,1,.129.029.211.211,0,0,1,.091.072.191.191,0,0,1,.038.12.36.36,0,0,1-.019.124.214.214,0,0,1-.062.086.255.255,0,0,1-.12.053.937.937,0,0,1-.177.014H8.959v-.5Z" transform="translate(-442 -307)"/>
  </g>
</svg>
