<svg xmlns="http://www.w3.org/2000/svg" viewBox="-23 12349 15 15.021">
  <g id="project_management_black" data-name="project management black" transform="translate(-37.8 12334.2)">
    <g id="Group_30" data-name="Group 30" transform="translate(14.8 14.8)">
      <path id="Path_27" data-name="Path 27" d="M28.372,19.487a1.369,1.369,0,0,0-.128-1.811l-1.321-1.321a1.369,1.369,0,0,0-1.811-.128l-.149.107a.2.2,0,0,1-.213.021.227.227,0,0,1-.128-.17l-.021-.192A1.378,1.378,0,0,0,23.237,14.8H21.384a1.362,1.362,0,0,0-1.364,1.193l-.043.192a.227.227,0,0,1-.128.17.2.2,0,0,1-.213-.021l-.149-.107a1.369,1.369,0,0,0-1.811.128l-1.321,1.321a1.369,1.369,0,0,0-.128,1.811l.107.17a.2.2,0,0,1,.021.213.227.227,0,0,1-.17.128l-.192.021A1.378,1.378,0,0,0,14.8,21.384v1.854A1.362,1.362,0,0,0,15.993,24.6l.192.043a.227.227,0,0,1,.17.128.2.2,0,0,1-.021.213l-.107.149a1.369,1.369,0,0,0,.128,1.811l1.321,1.321a1.405,1.405,0,0,0,.98.4,1.44,1.44,0,0,0,.831-.277l.17-.107a.2.2,0,0,1,.213-.021.227.227,0,0,1,.128.17l.021.192a1.378,1.378,0,0,0,1.364,1.193h1.854A1.362,1.362,0,0,0,24.6,28.628l.043-.192a.227.227,0,0,1,.128-.17.2.2,0,0,1,.213.021l.149.107a1.3,1.3,0,0,0,.831.277,1.405,1.405,0,0,0,.98-.4l1.321-1.321a1.369,1.369,0,0,0,.128-1.811l-.128-.17a.2.2,0,0,1-.021-.213.227.227,0,0,1,.17-.128l.192-.021A1.378,1.378,0,0,0,29.8,23.237V21.384a1.362,1.362,0,0,0-1.193-1.364l-.192-.043a.227.227,0,0,1-.17-.128.2.2,0,0,1,.021-.213Zm.021,1.768h.021a.1.1,0,0,1,.085.107v1.854c0,.043-.043.107-.085.107h-.021l-.213.043a1.475,1.475,0,0,0-.959,2.322l.128.17.021.021a.1.1,0,0,1-.021.128l-1.321,1.321c-.043.043-.085.043-.149,0l-.021-.021-.149-.085a1.475,1.475,0,0,0-2.322.959l-.043.213v.021a.1.1,0,0,1-.107.085H21.384c-.043,0-.107-.043-.107-.085v-.021l-.043-.213a1.48,1.48,0,0,0-.895-1.129,1.377,1.377,0,0,0-.575-.107,1.405,1.405,0,0,0-.852.277l-.17.128-.021.021a.066.066,0,0,1-.043.021c-.021,0-.043,0-.085-.043l-1.321-1.321a.1.1,0,0,1,0-.149l.021-.021.107-.17a1.475,1.475,0,0,0-.959-2.322l-.213-.043h-.021a.1.1,0,0,1-.085-.107V21.362c0-.043.043-.107.085-.107h.021l.192-.043a1.475,1.475,0,0,0,.959-2.322l-.128-.17-.021-.021a.1.1,0,0,1,.021-.128l1.321-1.321a.1.1,0,0,1,.149,0l.021.021.17.107a1.475,1.475,0,0,0,2.322-.959l.043-.213v-.021a.1.1,0,0,1,.107-.085h1.854c.043,0,.107.043.107.085v.021l.043.192a1.475,1.475,0,0,0,2.322.959l.17-.128.021-.021a.1.1,0,0,1,.128.021L27.35,18.55a.1.1,0,0,1,0,.149l-.021.021-.107.17a1.475,1.475,0,0,0,.959,2.322Z" transform="translate(-14.8 -14.8)"/>
      <path id="Path_28" data-name="Path 28" d="M34.115,33.841a1.722,1.722,0,0,0-.341.341,3.762,3.762,0,0,0,.213,5.007,3.654,3.654,0,0,0,2.578,1.065,4.109,4.109,0,0,0,2.429-.852,1.722,1.722,0,0,0,.341-.341,3.7,3.7,0,0,0-5.22-5.22Zm4.2,4.474a.046.046,0,0,0-.043.043h0a2.429,2.429,0,0,1-3.43-3.43c.021-.021.021-.043.043-.043a2.9,2.9,0,0,1,1.683-.6,2.38,2.38,0,0,1,1.662.682A2.5,2.5,0,0,1,38.312,38.315Z" transform="translate(-29.065 -29.111)"/>
    </g>
  </g>
</svg>
